<?xml version="1.0" encoding="UTF-8"?>
<svg width="24px" height="24px" viewBox="0 0 24 24" version="1.1" xmlns="http://www.w3.org/2000/svg" xmlns:xlink="http://www.w3.org/1999/xlink">
    <!-- Generator: sketchtool 63.1 (101010) - https://sketch.com -->
    <title>498D7AA3-4F31-4B70-B14E-3D683A513AE5@1.00x</title>
    <desc>Created with sketchtool.</desc>
    <defs>
        <path d="M4.82666667,10.3866667 C6.74666667,14.16 9.84,17.24 13.6133333,19.1733333 L16.5466667,16.24 C16.9066667,15.88 17.44,15.76 17.9066667,15.92 C19.4,16.4133333 21.0133333,16.68 22.6666667,16.68 C23.4,16.68 24,17.28 24,18.0133333 L24,22.6666667 C24,23.4 23.4,24 22.6666667,24 C10.1466667,24 0,13.8533333 0,1.33333333 C0,0.6 0.6,0 1.33333333,0 L6,0 C6.73333333,0 7.33333333,0.6 7.33333333,1.33333333 C7.33333333,3 7.6,4.6 8.09333333,6.09333333 C8.24,6.56 8.13333333,7.08 7.76,7.45333333 L4.82666667,10.3866667 Z" id="path-1"></path>
    </defs>
    <g id="Icons" stroke="none" stroke-width="1" fill="none" fill-rule="evenodd">
        <g id="*Guides/Styles" transform="translate(-412.000000, -457.000000)">
            <g id="Elements/Icons/Default/Phone-Sharp" transform="translate(412.000000, 457.000000)">
                <g id="Container" stroke-width="1" fill-rule="evenodd">
                    <rect id="Padding" x="0" y="0" width="24" height="24"></rect>
                </g>
                <mask id="mask-2" fill="white">
                    <use xlink:href="#path-1"></use>
                </mask>
                <use id="Phone" fill="#0F70F0" fill-rule="evenodd" xlink:href="#path-1"></use>
            </g>
        </g>
    </g>
</svg>